<svg width="30" height="30" viewBox="0 0 48 48" fill="none" xmlns="http://www.w3.org/2000/svg">
<rect width="48" height="48" fill="#F2F1F1"/>
<path d="M4.5 19.5H9V31.5H6C5.60218 31.5 5.22064 31.6581 4.93934 31.9394C4.65804 32.2207 4.5 32.6022 4.5 33C4.5 33.3979 4.65804 33.7794 4.93934 34.0607C5.22064 34.342 5.60218 34.5 6 34.5H42C42.3978 34.5 42.7794 34.342 43.0607 34.0607C43.342 33.7794 43.5 33.3979 43.5 33C43.5 32.6022 43.342 32.2207 43.0607 31.9394C42.7794 31.6581 42.3978 31.5 42 31.5H39V19.5H43.5C43.8264 19.4997 44.1437 19.3929 44.4039 19.1959C44.6641 18.9989 44.853 18.7224 44.9418 18.4084C45.0307 18.0943 45.0147 17.7599 44.8963 17.4558C44.7778 17.1516 44.5634 16.8944 44.2856 16.7232L24.7856 4.72317C24.5493 4.57789 24.2774 4.50098 24 4.50098C23.7226 4.50098 23.4507 4.57789 23.2144 4.72317L3.71437 16.7232C3.43655 16.8944 3.22217 17.1516 3.10374 17.4558C2.98532 17.7599 2.96932 18.0943 3.05817 18.4084C3.14702 18.7224 3.33586 18.9989 3.59607 19.1959C3.85627 19.3929 4.17363 19.4997 4.5 19.5ZM12 19.5H18V31.5H12V19.5ZM27 19.5V31.5H21V19.5H27ZM36 31.5H30V19.5H36V31.5ZM24 7.76067L38.2013 16.5H9.79875L24 7.76067ZM46.5 39C46.5 39.3979 46.342 39.7794 46.0607 40.0607C45.7794 40.342 45.3978 40.5 45 40.5H3C2.60218 40.5 2.22064 40.342 1.93934 40.0607C1.65804 39.7794 1.5 39.3979 1.5 39C1.5 38.6022 1.65804 38.2207 1.93934 37.9394C2.22064 37.6581 2.60218 37.5 3 37.5H45C45.3978 37.5 45.7794 37.6581 46.0607 37.9394C46.342 38.2207 46.5 38.6022 46.5 39Z" fill="#444468"/>
</svg>
